<?xml version="1.0"?>
<svg xmlns="http://www.w3.org/2000/svg" xmlns:xlink="http://www.w3.org/1999/xlink" version="1.1" id="Layer_1_1_" x="0px" y="0px" viewBox="0 0 64 64" style="enable-background:new 0 0 64 64;" xml:space="preserve" width="512px" height="512px" class=""><g><g>
	<g>
		<rect x="16" y="20" style="fill:#18B1D0" width="32" height="13" data-original="#F0BC5E" class="active-path" data-old_color="#F0BC5E"/>
	</g>
	<g>
		<g>
			<path style="fill:#18B1D0" d="M34.781,63h-5.562l-0.625-2.503c-0.802-0.237-1.576-0.559-2.313-0.96l-2.214,1.328l-3.932-3.932     l1.328-2.214c-0.401-0.737-0.723-1.512-0.96-2.313L18,51.781v-5.562l2.503-0.625c0.237-0.802,0.559-1.576,0.96-2.313     l-1.328-2.214l3.932-3.932l2.214,1.328c0.737-0.401,1.512-0.723,2.313-0.96L29.219,35h5.562l0.625,2.503     c0.802,0.237,1.576,0.559,2.313,0.96l2.214-1.328l3.932,3.932l-1.328,2.214c0.401,0.737,0.723,1.512,0.96,2.313L46,46.219v5.562     l-2.503,0.625c-0.237,0.802-0.559,1.576-0.96,2.313l1.328,2.214l-3.932,3.932l-2.214-1.328c-0.737,0.401-1.512,0.723-2.313,0.96     L34.781,63z" data-original="#F0BC5E" class="active-path" data-old_color="#F0BC5E"/>
		</g>
	</g>
	<g>
		<rect x="16" y="27" width="32" height="2" data-original="#000000" class="" style="fill:#000000" data-old_color="#000000"/>
		<rect x="35" y="31" width="13" height="2" data-original="#000000" class="" style="fill:#000000" data-old_color="#000000"/>
		<rect x="16" y="31" width="13" height="2" data-original="#000000" class="" style="fill:#000000" data-old_color="#000000"/>
		<rect x="35" y="23" width="13" height="2" data-original="#000000" class="" style="fill:#000000" data-old_color="#000000"/>
		<rect x="16" y="23" width="13" height="2" data-original="#000000" class="" style="fill:#000000" data-old_color="#000000"/>
		<rect x="16" y="19" width="32" height="2" data-original="#000000" class="" style="fill:#000000" data-old_color="#000000"/>
		<path d="M52,39c0,2.206-1.794,4-4,4v2c3.309,0,6-2.691,6-6v-5.171c0-1.557,0.606-3.021,1.707-4.122L56.414,29l-0.707-0.707    C54.606,27.192,54,25.729,54,24.171V19c0-3.309-2.691-6-6-6v2c2.206,0,4,1.794,4,4v5.171c0,1.773,0.585,3.457,1.665,4.829    C52.585,30.372,52,32.056,52,33.829V39z" data-original="#000000" class="" style="fill:#000000" data-old_color="#000000"/>
		<path d="M12,19c0-2.206,1.794-4,4-4v-2c-3.309,0-6,2.691-6,6v5.171c0,1.557-0.606,3.021-1.707,4.122L7.586,29l0.707,0.707    C9.394,30.808,10,32.271,10,33.829V39c0,3.309,2.691,6,6,6v-2c-2.206,0-4-1.794-4-4v-5.171c0-1.773-0.585-3.457-1.665-4.829    C11.415,27.628,12,25.944,12,24.171V19z" data-original="#000000" class="" style="fill:#000000" data-old_color="#000000"/>
		<path d="M32,45c-2.206,0-4,1.794-4,4s1.794,4,4,4s4-1.794,4-4S34.206,45,32,45z M32,51c-1.103,0-2-0.897-2-2s0.897-2,2-2    s2,0.897,2,2S33.103,51,32,51z" data-original="#000000" class="" style="fill:#000000" data-old_color="#000000"/>
		<path d="M32,41c-1.328,0-2.645,0.333-3.807,0.962l0.953,1.759C30.017,43.25,31.003,43,32,43c3.309,0,6,2.691,6,6    c0,0.997-0.25,1.983-0.721,2.854l1.759,0.953C39.667,51.645,40,50.328,40,49C40,44.589,36.411,41,32,41z" data-original="#000000" class="" style="fill:#000000" data-old_color="#000000"/>
		<path d="M32,55c-3.309,0-6-2.691-6-6c0-0.997,0.25-1.983,0.721-2.854l-1.759-0.953C24.333,46.355,24,47.672,24,49    c0,4.411,3.589,8,8,8c1.328,0,2.645-0.333,3.807-0.962l-0.953-1.759C33.983,54.75,32.997,55,32,55z" data-original="#000000" class="" style="fill:#000000" data-old_color="#000000"/>
		<path d="M60,1H4C2.346,1,1,2.346,1,4v46h17v-2H3V11h58v37H46v2h17V4C63,2.346,61.654,1,60,1z M3,9V4c0-0.551,0.449-1,1-1h56    c0.551,0,1,0.449,1,1v5H3z" data-original="#000000" class="" style="fill:#000000" data-old_color="#000000"/>
		<rect x="5" y="5" width="2" height="2" data-original="#000000" class="" style="fill:#000000" data-old_color="#000000"/>
		<rect x="9" y="5" width="2" height="2" data-original="#000000" class="" style="fill:#000000" data-old_color="#000000"/>
		<rect x="13" y="5" width="2" height="2" data-original="#000000" class="" style="fill:#000000" data-old_color="#000000"/>
	</g>
</g></g> </svg>
